<mxfile host="app.diagrams.net" modified="2021-06-30T16:04:27.572Z" agent="5.0 (Macintosh; Intel Mac OS X 10_15_6) AppleWebKit/605.1.15 (KHTML, like Gecko) Version/14.0.3 Safari/605.1.15" etag="8qqwjuLpkAQhNPKD4ADL" version="14.6.11" type="github">
  <diagram id="jlkuYc0RQV300mqyiXfJ" name="第 1 页">
    <mxGraphModel dx="946" dy="558" grid="1" gridSize="10" guides="1" tooltips="1" connect="1" arrows="1" fold="1" page="1" pageScale="1" pageWidth="827" pageHeight="1169" math="0" shadow="0">
      <root>
        <mxCell id="0" />
        <mxCell id="1" parent="0" />
        <mxCell id="T8pXGF-69hlKfz8ZRjN_-5" value="读操作" style="edgeStyle=orthogonalEdgeStyle;rounded=0;orthogonalLoop=1;jettySize=auto;html=1;fontSize=16;entryX=0.75;entryY=0;entryDx=0;entryDy=0;exitX=0.714;exitY=1;exitDx=0;exitDy=0;exitPerimeter=0;" edge="1" parent="1" source="T8pXGF-69hlKfz8ZRjN_-1" target="T8pXGF-69hlKfz8ZRjN_-3">
          <mxGeometry relative="1" as="geometry">
            <mxPoint x="340" y="240" as="sourcePoint" />
          </mxGeometry>
        </mxCell>
        <mxCell id="T8pXGF-69hlKfz8ZRjN_-6" value="&lt;font color=&quot;#ff3333&quot;&gt;写操作&lt;/font&gt;" style="edgeStyle=orthogonalEdgeStyle;rounded=0;orthogonalLoop=1;jettySize=auto;html=1;entryX=0.25;entryY=0;entryDx=0;entryDy=0;fontSize=16;exitX=0.283;exitY=1.013;exitDx=0;exitDy=0;exitPerimeter=0;fillColor=#fa6800;strokeColor=#C73500;" edge="1" parent="1" source="T8pXGF-69hlKfz8ZRjN_-1" target="T8pXGF-69hlKfz8ZRjN_-3">
          <mxGeometry x="-0.006" relative="1" as="geometry">
            <mxPoint as="offset" />
          </mxGeometry>
        </mxCell>
        <mxCell id="T8pXGF-69hlKfz8ZRjN_-9" value="读操作" style="rounded=0;orthogonalLoop=1;jettySize=auto;html=1;fontSize=16;exitX=0;exitY=0.5;exitDx=0;exitDy=0;" edge="1" parent="1" source="T8pXGF-69hlKfz8ZRjN_-1" target="T8pXGF-69hlKfz8ZRjN_-2">
          <mxGeometry relative="1" as="geometry" />
        </mxCell>
        <mxCell id="T8pXGF-69hlKfz8ZRjN_-10" value="读操作" style="rounded=0;orthogonalLoop=1;jettySize=auto;html=1;fontSize=16;exitX=1;exitY=0.5;exitDx=0;exitDy=0;" edge="1" parent="1" source="T8pXGF-69hlKfz8ZRjN_-1" target="T8pXGF-69hlKfz8ZRjN_-4">
          <mxGeometry relative="1" as="geometry" />
        </mxCell>
        <mxCell id="T8pXGF-69hlKfz8ZRjN_-1" value="客户端" style="ellipse;whiteSpace=wrap;html=1;fontSize=16;fillColor=#dae8fc;strokeColor=#6c8ebf;" vertex="1" parent="1">
          <mxGeometry x="240" y="100" width="140" height="90" as="geometry" />
        </mxCell>
        <mxCell id="T8pXGF-69hlKfz8ZRjN_-2" value="从服务器&lt;br&gt;&lt;span style=&quot;color: rgb(0 , 0 , 0)&quot;&gt;（普通员工）&lt;/span&gt;" style="rounded=1;whiteSpace=wrap;html=1;fontSize=16;fillColor=#f5f5f5;strokeColor=#666666;fontColor=#333333;" vertex="1" parent="1">
          <mxGeometry x="10" y="320" width="120" height="60" as="geometry" />
        </mxCell>
        <mxCell id="T8pXGF-69hlKfz8ZRjN_-7" value="写操作同步" style="edgeStyle=orthogonalEdgeStyle;rounded=0;orthogonalLoop=1;jettySize=auto;html=1;entryX=1;entryY=0.5;entryDx=0;entryDy=0;fontSize=16;fillColor=#fa6800;strokeColor=#C73500;fontColor=#FF3333;" edge="1" parent="1" source="T8pXGF-69hlKfz8ZRjN_-3" target="T8pXGF-69hlKfz8ZRjN_-2">
          <mxGeometry relative="1" as="geometry" />
        </mxCell>
        <mxCell id="T8pXGF-69hlKfz8ZRjN_-8" value="&lt;font color=&quot;#ff3333&quot;&gt;写操作同步&lt;/font&gt;" style="edgeStyle=orthogonalEdgeStyle;rounded=0;orthogonalLoop=1;jettySize=auto;html=1;entryX=0;entryY=0.5;entryDx=0;entryDy=0;fontSize=16;fillColor=#fa6800;strokeColor=#C73500;" edge="1" parent="1" source="T8pXGF-69hlKfz8ZRjN_-3" target="T8pXGF-69hlKfz8ZRjN_-4">
          <mxGeometry relative="1" as="geometry" />
        </mxCell>
        <mxCell id="T8pXGF-69hlKfz8ZRjN_-3" value="主服务器&lt;br&gt;（老板角色）" style="rounded=1;whiteSpace=wrap;html=1;fontSize=16;fillColor=#ffe6cc;strokeColor=#d79b00;" vertex="1" parent="1">
          <mxGeometry x="250" y="320" width="120" height="60" as="geometry" />
        </mxCell>
        <mxCell id="T8pXGF-69hlKfz8ZRjN_-13" value="写操作同步" style="edgeStyle=none;rounded=0;orthogonalLoop=1;jettySize=auto;html=1;entryX=0.5;entryY=0;entryDx=0;entryDy=0;fontSize=16;exitX=0.5;exitY=1;exitDx=0;exitDy=0;fillColor=#fa6800;strokeColor=#C73500;fontColor=#FF3333;" edge="1" parent="1" source="T8pXGF-69hlKfz8ZRjN_-4" target="T8pXGF-69hlKfz8ZRjN_-11">
          <mxGeometry relative="1" as="geometry" />
        </mxCell>
        <mxCell id="T8pXGF-69hlKfz8ZRjN_-14" value="写操作同步" style="edgeStyle=none;rounded=0;orthogonalLoop=1;jettySize=auto;html=1;entryX=0.5;entryY=0;entryDx=0;entryDy=0;fontSize=16;exitX=0.5;exitY=1;exitDx=0;exitDy=0;fillColor=#fa6800;strokeColor=#C73500;fontColor=#FF3333;" edge="1" parent="1" source="T8pXGF-69hlKfz8ZRjN_-4" target="T8pXGF-69hlKfz8ZRjN_-12">
          <mxGeometry relative="1" as="geometry" />
        </mxCell>
        <mxCell id="T8pXGF-69hlKfz8ZRjN_-4" value="从服务器&lt;br&gt;（经理角色）" style="rounded=1;whiteSpace=wrap;html=1;fontSize=16;fillColor=#fff2cc;strokeColor=#d6b656;" vertex="1" parent="1">
          <mxGeometry x="490" y="320" width="120" height="60" as="geometry" />
        </mxCell>
        <mxCell id="T8pXGF-69hlKfz8ZRjN_-11" value="从服务器&lt;br&gt;&lt;span style=&quot;color: rgb(0 , 0 , 0)&quot;&gt;（普通员工）&lt;/span&gt;" style="rounded=1;whiteSpace=wrap;html=1;fontSize=16;fillColor=#f5f5f5;strokeColor=#666666;fontColor=#333333;" vertex="1" parent="1">
          <mxGeometry x="380" y="460" width="120" height="60" as="geometry" />
        </mxCell>
        <mxCell id="T8pXGF-69hlKfz8ZRjN_-12" value="从服务器&lt;br&gt;&lt;span style=&quot;color: rgb(0 , 0 , 0)&quot;&gt;（普通员工）&lt;/span&gt;" style="rounded=1;whiteSpace=wrap;html=1;fontSize=16;fillColor=#f5f5f5;strokeColor=#666666;fontColor=#333333;" vertex="1" parent="1">
          <mxGeometry x="590" y="460" width="120" height="60" as="geometry" />
        </mxCell>
      </root>
    </mxGraphModel>
  </diagram>
</mxfile>
